<mxfile host="app.diagrams.net" agent="Mozilla/5.0 (Windows NT 10.0; Win64; x64; rv:133.0) Gecko/20100101 Firefox/133.0" version="25.0.3">
  <diagram name="Seite-1" id="qBr-kgLi9h5OKOdKlUSg">
    <mxGraphModel dx="932" dy="225" grid="1" gridSize="10" guides="1" tooltips="1" connect="1" arrows="1" fold="1" page="1" pageScale="1" pageWidth="827" pageHeight="1169" math="0" shadow="0">
      <root>
        <mxCell id="0" />
        <mxCell id="1" parent="0" />
        <mxCell id="b572gwpHaJpwLimqCF18-1" value="Geography Hierarchy" style="shape=loopLimit;whiteSpace=wrap;html=1;size=20;verticalAlign=middle;spacingLeft=37;align=left;" vertex="1" parent="1">
          <mxGeometry x="2720" y="1680" width="160" height="40" as="geometry" />
        </mxCell>
        <mxCell id="b572gwpHaJpwLimqCF18-2" value="" style="group" vertex="1" connectable="0" parent="1">
          <mxGeometry x="2725" y="1691" width="24" height="24" as="geometry" />
        </mxCell>
        <mxCell id="b572gwpHaJpwLimqCF18-3" style="vsdxID=8;fillColor=#C0C0C0;gradientColor=none;shape=stencil(rVFBDsIwDHtNj5VCK14wxj8ilm0VZZ3SAuX3tAoIBhwQ4mbHjhMlyjZxxJmUgZg47OnsujQqu1HGuGkkdqkgZVtlmz4wDRyOUyd8xuqs6BBONSFLH9QOAxdha6FbcSLvisR5oQEvvfegFXyMgqwxu6g5JEwuTIupHnkgXcbo3uNwyxEpnonmt/Ivi/1nLfhirQIeZ+6d9/KlZ/31LaUkL7XtFQ==);strokeColor=#000000;spacingTop=-3;spacingBottom=-3;spacingLeft=-3;spacingRight=-3;points=[];labelBackgroundColor=none;rounded=0;html=1;whiteSpace=wrap;" vertex="1" parent="b572gwpHaJpwLimqCF18-2">
          <mxGeometry y="15" width="9" height="9" as="geometry" />
        </mxCell>
        <mxCell id="b572gwpHaJpwLimqCF18-4" style="vsdxID=9;fillColor=#C0C0C0;gradientColor=none;shape=stencil(rVFBDsIwDHtNj5VCK14wxj8ilm0VZZ3SAuX3tAoIBhwQ4mbHjhMlyjZxxJmUgZg47OnsujQqu1HGuGkkdqkgZVtlmz4wDRyOUyd8xuqs6BBONSFLH9QOAxdha6FbcSLvisR5oQEvvfegFXyMgqwxu6g5JEwuTIupHnkgXcbo3uNwyxEpnonmt/Ivi/1nLfhirQIeZ+6d9/KlZ/31LaUkL7XtFQ==);strokeColor=#000000;spacingTop=-3;spacingBottom=-3;spacingLeft=-3;spacingRight=-3;points=[];labelBackgroundColor=none;rounded=0;html=1;whiteSpace=wrap;" vertex="1" parent="b572gwpHaJpwLimqCF18-2">
          <mxGeometry x="15" y="15" width="9" height="9" as="geometry" />
        </mxCell>
        <mxCell id="b572gwpHaJpwLimqCF18-5" style="vsdxID=10;fillColor=#C0C0C0;gradientColor=none;shape=stencil(rVFBDsIwDHtNj5VCK14wxj8ilm0VZZ3SAuX3tAoIBhwQ4mbHjhMlyjZxxJmUgZg47OnsujQqu1HGuGkkdqkgZVtlmz4wDRyOUyd8xuqs6BBONSFLH9QOAxdha6FbcSLvisR5oQEvvfegFXyMgqwxu6g5JEwuTIupHnkgXcbo3uNwyxEpnonmt/Ivi/1nLfhirQIeZ+6d9/KlZ/31LaUkL7XtFQ==);strokeColor=#000000;spacingTop=-3;spacingBottom=-3;spacingLeft=-3;spacingRight=-3;points=[];labelBackgroundColor=none;rounded=0;html=1;whiteSpace=wrap;" vertex="1" parent="b572gwpHaJpwLimqCF18-2">
          <mxGeometry x="7" width="9" height="9" as="geometry" />
        </mxCell>
        <mxCell id="b572gwpHaJpwLimqCF18-6" value="" style="vsdxID=11;edgeStyle=none;startArrow=none;endArrow=none;startSize=5;endSize=5;strokeColor=#000000;spacingTop=-3;spacingBottom=-3;spacingLeft=-3;spacingRight=-3;verticalAlign=middle;html=1;labelBackgroundColor=none;rounded=0;" edge="1" parent="b572gwpHaJpwLimqCF18-2">
          <mxGeometry relative="1" as="geometry">
            <Array as="points" />
            <mxPoint x="6" y="15" as="sourcePoint" />
            <mxPoint x="10" y="9" as="targetPoint" />
          </mxGeometry>
        </mxCell>
        <mxCell id="b572gwpHaJpwLimqCF18-7" value="" style="vsdxID=12;edgeStyle=none;startArrow=none;endArrow=none;startSize=5;endSize=5;strokeColor=#000000;spacingTop=-3;spacingBottom=-3;spacingLeft=-3;spacingRight=-3;verticalAlign=middle;html=1;labelBackgroundColor=none;rounded=0;" edge="1" parent="b572gwpHaJpwLimqCF18-2" target="b572gwpHaJpwLimqCF18-5">
          <mxGeometry relative="1" as="geometry">
            <Array as="points" />
            <mxPoint x="18" y="15" as="sourcePoint" />
            <mxPoint x="15" y="9" as="targetPoint" />
          </mxGeometry>
        </mxCell>
        <object label="Fiege Location" btelligentADAPTType="Dimension" id="b572gwpHaJpwLimqCF18-8">
          <mxCell style="group;fillColor=default;resizable=0;expand=0;recursiveResize=0;dropTarget=1;align=left;verticalAlign=middle;spacingLeft=34;rotatable=0;editable=1;movable=1;deletable=1;locked=0;connectable=1;metaEdit=0;backgroundOutline=0;fontStyle=1" connectable="0" vertex="1" parent="1">
            <mxGeometry x="2720" y="1560" width="160" height="40" as="geometry" />
          </mxCell>
        </object>
        <mxCell id="b572gwpHaJpwLimqCF18-9" value="ADAPT Dimension" style="rounded=0;whiteSpace=wrap;html=1;align=left;spacingLeft=37;fontStyle=0;fontFamily=Helvetica;fontSize=8;container=0;fillColor=none;fontColor=none;noLabel=1;connectable=0;allowArrows=0;expand=0;movable=0;resizable=0;deletable=0;cloneable=0;rotatable=0;recursiveResize=0;editable=0;locked=0;" vertex="1" parent="b572gwpHaJpwLimqCF18-8">
          <mxGeometry width="160" height="40" as="geometry" />
        </mxCell>
        <mxCell id="b572gwpHaJpwLimqCF18-10" value="" style="group;deletable=0;cloneable=0;rotatable=0;resizable=0;movable=0;expand=0;recursiveResize=0;dropTarget=0;allowArrows=0;container=0;editable=0;" connectable="0" vertex="1" parent="b572gwpHaJpwLimqCF18-8">
          <mxGeometry x="6.080000000000041" y="4" width="22" height="32" as="geometry" />
        </mxCell>
        <mxCell id="b572gwpHaJpwLimqCF18-11" value="" style="group;cloneable=0;deletable=0;rotatable=0;resizable=0;movable=0;expand=0;recursiveResize=0;dropTarget=0;allowArrows=0;editable=0;" connectable="0" vertex="1" parent="b572gwpHaJpwLimqCF18-8">
          <mxGeometry x="6.080000000000041" y="4" width="22" height="32" as="geometry" />
        </mxCell>
        <mxCell id="b572gwpHaJpwLimqCF18-12" value="" style="rounded=0;whiteSpace=wrap;html=1;fillColor=#000000;fontColor=#ffffff;strokeColor=#000000;strokeWidth=1;deletable=1;cloneable=0;movable=0;editable=0;resizable=0;rotatable=0;locked=0;connectable=0;container=0;expand=0;recursiveResize=0;allowArrows=0;" vertex="1" parent="b572gwpHaJpwLimqCF18-11">
          <mxGeometry y="10" width="10" height="10" as="geometry" />
        </mxCell>
        <mxCell id="b572gwpHaJpwLimqCF18-13" value="" style="endArrow=block;html=1;rounded=0;endFill=1;startSize=2;endSize=3;strokeWidth=1;deletable=1;cloneable=0;movable=1;editable=0;resizable=1;rotatable=1;locked=0;connectable=1;" edge="1" parent="b572gwpHaJpwLimqCF18-11">
          <mxGeometry width="50" height="50" relative="1" as="geometry">
            <mxPoint x="9" y="10" as="sourcePoint" />
            <mxPoint x="22" y="10" as="targetPoint" />
          </mxGeometry>
        </mxCell>
        <mxCell id="b572gwpHaJpwLimqCF18-14" value="" style="endArrow=block;html=1;rounded=0;endFill=1;startSize=2;endSize=3;strokeWidth=1;deletable=1;cloneable=0;movable=1;editable=0;resizable=1;rotatable=1;locked=0;connectable=1;" edge="1" parent="b572gwpHaJpwLimqCF18-11">
          <mxGeometry width="50" height="50" relative="1" as="geometry">
            <mxPoint y="18" as="sourcePoint" />
            <mxPoint y="32" as="targetPoint" />
          </mxGeometry>
        </mxCell>
        <mxCell id="b572gwpHaJpwLimqCF18-15" value="" style="endArrow=block;html=1;rounded=0;endFill=1;startSize=2;endSize=3;strokeWidth=1;deletable=1;cloneable=0;movable=1;editable=1;resizable=1;rotatable=1;locked=0;connectable=1;" edge="1" parent="b572gwpHaJpwLimqCF18-11">
          <mxGeometry width="50" height="50" relative="1" as="geometry">
            <mxPoint y="10" as="sourcePoint" />
            <mxPoint x="11" as="targetPoint" />
          </mxGeometry>
        </mxCell>
        <UserObject label="" tooltip="ADAPT Attribute" id="b572gwpHaJpwLimqCF18-16">
          <mxCell style="group" vertex="1" connectable="0" parent="1">
            <mxGeometry x="3179" y="2000" width="160" height="40" as="geometry" />
          </mxCell>
        </UserObject>
        <mxCell id="b572gwpHaJpwLimqCF18-17" value="Name" style="shape=singleArrow;direction=west;whiteSpace=wrap;html=1;arrowWidth=1;arrowSize=0.125;align=left;spacingLeft=37;" vertex="1" parent="b572gwpHaJpwLimqCF18-16">
          <mxGeometry width="160" height="40" as="geometry" />
        </mxCell>
        <mxCell id="b572gwpHaJpwLimqCF18-18" style="vsdxID=7;fillColor=#C0C0C0;gradientColor=none;shape=stencil(nZBNDoQgDIVP0z3SeALFe5iI0gwDBvHv9kIaM+rCxezea7++pA+wmkw7apBiisF/9EpdNIA1SEnO6EAxKUAFWPU+6CH42XXsxzaTWX39khM2vitFPpFiZ8uuYdKSu5B3sHwhH5mFeGHP5R+5NzKJ34s9WcsNXffPStKI60R1AA==);strokeColor=#000000;spacingTop=-3;spacingBottom=-3;spacingLeft=-3;spacingRight=-3;points=[];labelBackgroundColor=none;rounded=0;html=1;whiteSpace=wrap;" vertex="1" parent="b572gwpHaJpwLimqCF18-16">
          <mxGeometry x="8" y="7.5" width="25" height="25" as="geometry" />
        </mxCell>
        <UserObject label="" tooltip="ADAPT Attribute" id="b572gwpHaJpwLimqCF18-19">
          <mxCell style="group" vertex="1" connectable="0" parent="1">
            <mxGeometry x="3179" y="2060" width="160" height="40" as="geometry" />
          </mxCell>
        </UserObject>
        <mxCell id="b572gwpHaJpwLimqCF18-20" value="Ort" style="shape=singleArrow;direction=west;whiteSpace=wrap;html=1;arrowWidth=1;arrowSize=0.125;align=left;spacingLeft=37;" vertex="1" parent="b572gwpHaJpwLimqCF18-19">
          <mxGeometry width="160" height="40" as="geometry" />
        </mxCell>
        <mxCell id="b572gwpHaJpwLimqCF18-21" style="vsdxID=7;fillColor=#C0C0C0;gradientColor=none;shape=stencil(nZBNDoQgDIVP0z3SeALFe5iI0gwDBvHv9kIaM+rCxezea7++pA+wmkw7apBiisF/9EpdNIA1SEnO6EAxKUAFWPU+6CH42XXsxzaTWX39khM2vitFPpFiZ8uuYdKSu5B3sHwhH5mFeGHP5R+5NzKJ34s9WcsNXffPStKI60R1AA==);strokeColor=#000000;spacingTop=-3;spacingBottom=-3;spacingLeft=-3;spacingRight=-3;points=[];labelBackgroundColor=none;rounded=0;html=1;whiteSpace=wrap;" vertex="1" parent="b572gwpHaJpwLimqCF18-19">
          <mxGeometry x="8" y="7.5" width="25" height="25" as="geometry" />
        </mxCell>
        <UserObject label="" tooltip="ADAPT Hierarchy" id="b572gwpHaJpwLimqCF18-22">
          <mxCell style="group" vertex="1" connectable="0" parent="1">
            <mxGeometry x="2959" y="1680" width="160" height="40" as="geometry" />
          </mxCell>
        </UserObject>
        <mxCell id="b572gwpHaJpwLimqCF18-23" value="Functional Hierarchy" style="shape=loopLimit;whiteSpace=wrap;html=1;size=20;verticalAlign=middle;spacingLeft=37;align=left;" vertex="1" parent="b572gwpHaJpwLimqCF18-22">
          <mxGeometry width="160" height="40" as="geometry" />
        </mxCell>
        <mxCell id="b572gwpHaJpwLimqCF18-24" value="" style="group" vertex="1" connectable="0" parent="b572gwpHaJpwLimqCF18-22">
          <mxGeometry x="5" y="11" width="24" height="24" as="geometry" />
        </mxCell>
        <mxCell id="b572gwpHaJpwLimqCF18-25" style="vsdxID=8;fillColor=#C0C0C0;gradientColor=none;shape=stencil(rVFBDsIwDHtNj5VCK14wxj8ilm0VZZ3SAuX3tAoIBhwQ4mbHjhMlyjZxxJmUgZg47OnsujQqu1HGuGkkdqkgZVtlmz4wDRyOUyd8xuqs6BBONSFLH9QOAxdha6FbcSLvisR5oQEvvfegFXyMgqwxu6g5JEwuTIupHnkgXcbo3uNwyxEpnonmt/Ivi/1nLfhirQIeZ+6d9/KlZ/31LaUkL7XtFQ==);strokeColor=#000000;spacingTop=-3;spacingBottom=-3;spacingLeft=-3;spacingRight=-3;points=[];labelBackgroundColor=none;rounded=0;html=1;whiteSpace=wrap;" vertex="1" parent="b572gwpHaJpwLimqCF18-24">
          <mxGeometry y="15" width="9" height="9" as="geometry" />
        </mxCell>
        <mxCell id="b572gwpHaJpwLimqCF18-26" style="vsdxID=9;fillColor=#C0C0C0;gradientColor=none;shape=stencil(rVFBDsIwDHtNj5VCK14wxj8ilm0VZZ3SAuX3tAoIBhwQ4mbHjhMlyjZxxJmUgZg47OnsujQqu1HGuGkkdqkgZVtlmz4wDRyOUyd8xuqs6BBONSFLH9QOAxdha6FbcSLvisR5oQEvvfegFXyMgqwxu6g5JEwuTIupHnkgXcbo3uNwyxEpnonmt/Ivi/1nLfhirQIeZ+6d9/KlZ/31LaUkL7XtFQ==);strokeColor=#000000;spacingTop=-3;spacingBottom=-3;spacingLeft=-3;spacingRight=-3;points=[];labelBackgroundColor=none;rounded=0;html=1;whiteSpace=wrap;" vertex="1" parent="b572gwpHaJpwLimqCF18-24">
          <mxGeometry x="15" y="15" width="9" height="9" as="geometry" />
        </mxCell>
        <mxCell id="b572gwpHaJpwLimqCF18-27" style="vsdxID=10;fillColor=#C0C0C0;gradientColor=none;shape=stencil(rVFBDsIwDHtNj5VCK14wxj8ilm0VZZ3SAuX3tAoIBhwQ4mbHjhMlyjZxxJmUgZg47OnsujQqu1HGuGkkdqkgZVtlmz4wDRyOUyd8xuqs6BBONSFLH9QOAxdha6FbcSLvisR5oQEvvfegFXyMgqwxu6g5JEwuTIupHnkgXcbo3uNwyxEpnonmt/Ivi/1nLfhirQIeZ+6d9/KlZ/31LaUkL7XtFQ==);strokeColor=#000000;spacingTop=-3;spacingBottom=-3;spacingLeft=-3;spacingRight=-3;points=[];labelBackgroundColor=none;rounded=0;html=1;whiteSpace=wrap;" vertex="1" parent="b572gwpHaJpwLimqCF18-24">
          <mxGeometry x="7" width="9" height="9" as="geometry" />
        </mxCell>
        <mxCell id="b572gwpHaJpwLimqCF18-28" value="" style="vsdxID=11;edgeStyle=none;startArrow=none;endArrow=none;startSize=5;endSize=5;strokeColor=#000000;spacingTop=-3;spacingBottom=-3;spacingLeft=-3;spacingRight=-3;verticalAlign=middle;html=1;labelBackgroundColor=none;rounded=0;" edge="1" parent="b572gwpHaJpwLimqCF18-24">
          <mxGeometry relative="1" as="geometry">
            <Array as="points" />
            <mxPoint x="6" y="15" as="sourcePoint" />
            <mxPoint x="10" y="9" as="targetPoint" />
          </mxGeometry>
        </mxCell>
        <mxCell id="b572gwpHaJpwLimqCF18-29" value="" style="vsdxID=12;edgeStyle=none;startArrow=none;endArrow=none;startSize=5;endSize=5;strokeColor=#000000;spacingTop=-3;spacingBottom=-3;spacingLeft=-3;spacingRight=-3;verticalAlign=middle;html=1;labelBackgroundColor=none;rounded=0;" edge="1" parent="b572gwpHaJpwLimqCF18-24" target="b572gwpHaJpwLimqCF18-27">
          <mxGeometry relative="1" as="geometry">
            <Array as="points" />
            <mxPoint x="18" y="15" as="sourcePoint" />
            <mxPoint x="15" y="9" as="targetPoint" />
          </mxGeometry>
        </mxCell>
        <mxCell id="b572gwpHaJpwLimqCF18-30" value="" style="group" connectable="0" vertex="1" parent="1">
          <mxGeometry x="2720" y="1800" width="160" height="40" as="geometry" />
        </mxCell>
        <mxCell id="b572gwpHaJpwLimqCF18-31" value="Country" style="rounded=1;whiteSpace=wrap;html=1;arcSize=50;align=left;spacingLeft=38;" vertex="1" parent="b572gwpHaJpwLimqCF18-30">
          <mxGeometry width="160" height="40" as="geometry" />
        </mxCell>
        <mxCell id="b572gwpHaJpwLimqCF18-32" value="&lt;div style=&quot;font-size: 1px&quot;&gt;&lt;/div&gt;" style="verticalAlign=middle;align=center;overflow=width;vsdxID=9;fillColor=#C0C0C0;gradientColor=none;shape=stencil(UzV2Ls5ILEhVNTIoLinKz04tz0wpyVA1dlE1MsrMy0gtyiwBslSNXVWNndPyi1LTi/JL81Ig/IJEkEoQKze/DGRCBUSfqQFIi5FBJYQL4blBVOZk5iGpRFVoaIBHKUySKMX4XABkIByelpmTA/E3sjy6R4FCkEAydgUA);strokeColor=#000000;spacingTop=-3;spacingBottom=-3;spacingLeft=-3;spacingRight=-3;points=[];labelBackgroundColor=none;rounded=0;html=1;whiteSpace=wrap;container=0;" vertex="1" parent="b572gwpHaJpwLimqCF18-30">
          <mxGeometry x="12" y="14" width="13" height="11" as="geometry" />
        </mxCell>
        <mxCell id="b572gwpHaJpwLimqCF18-33" value="&lt;div style=&quot;font-size: 24px;&quot;&gt;&lt;font style=&quot;font-size: 24px; font-family: Calibri; color: rgb(0, 0, 0); direction: ltr; letter-spacing: 0px; line-height: 120%; opacity: 1;&quot;&gt;{&amp;nbsp;  }&lt;br style=&quot;font-size: 24px;&quot;&gt;&lt;/font&gt;&lt;/div&gt;" style="verticalAlign=middle;align=center;overflow=width;vsdxID=10;fillColor=none;gradientColor=none;shape=stencil(nZBLDoAgDERP0z3SIyjew0SURgSD+Lu9kMZoXLhwN9O+tukAlrNpJg1SzDH4QW/URgNYgZTkjA4UkwJUgGXng+6DX1zLfmoymdXo17xh5zmRJ6Q42BWCfc2oJfdAr+Yv+AP9Cb7OJ3H/2JG1HNGz/84klThPVCc=);strokeColor=none;spacingTop=0;spacingBottom=0;spacingLeft=0;spacingRight=0;points=[];labelBackgroundColor=none;rounded=0;html=1;whiteSpace=wrap;container=0;fontSize=24;fontStyle=0;horizontal=1;" vertex="1" parent="b572gwpHaJpwLimqCF18-30">
          <mxGeometry x="3" y="3" width="30" height="30" as="geometry" />
        </mxCell>
        <UserObject label="" tooltip="ADAPT StrictPrecedence" id="b572gwpHaJpwLimqCF18-34">
          <mxCell style="vsdxID=5;edgeStyle=orthogonalEdgeStyle;startArrow=doubleBlock;endArrow=none;startSize=10;endSize=0;strokeColor=#000000;spacingTop=0;spacingBottom=0;spacingLeft=0;spacingRight=0;verticalAlign=middle;html=1;labelBackgroundColor=#FFFFFF;rounded=1;jumpStyle=arc;startFill=1;" edge="1" parent="1" source="b572gwpHaJpwLimqCF18-1" target="b572gwpHaJpwLimqCF18-31">
            <mxGeometry x="-152" y="-991" relative="1" as="geometry">
              <mxPoint x="2699" y="1880" as="sourcePoint" />
              <mxPoint x="2709" y="1990" as="targetPoint" />
            </mxGeometry>
          </mxCell>
        </UserObject>
        <mxCell id="b572gwpHaJpwLimqCF18-35" value="" style="group" connectable="0" vertex="1" parent="1">
          <mxGeometry x="2720" y="1920" width="160" height="40" as="geometry" />
        </mxCell>
        <mxCell id="b572gwpHaJpwLimqCF18-36" value="Zone" style="rounded=1;whiteSpace=wrap;html=1;arcSize=50;align=left;spacingLeft=38;" vertex="1" parent="b572gwpHaJpwLimqCF18-35">
          <mxGeometry width="160" height="40" as="geometry" />
        </mxCell>
        <mxCell id="b572gwpHaJpwLimqCF18-37" value="&lt;div style=&quot;font-size: 1px&quot;&gt;&lt;/div&gt;" style="verticalAlign=middle;align=center;overflow=width;vsdxID=9;fillColor=#C0C0C0;gradientColor=none;shape=stencil(UzV2Ls5ILEhVNTIoLinKz04tz0wpyVA1dlE1MsrMy0gtyiwBslSNXVWNndPyi1LTi/JL81Ig/IJEkEoQKze/DGRCBUSfqQFIi5FBJYQL4blBVOZk5iGpRFVoaIBHKUySKMX4XABkIByelpmTA/E3sjy6R4FCkEAydgUA);strokeColor=#000000;spacingTop=-3;spacingBottom=-3;spacingLeft=-3;spacingRight=-3;points=[];labelBackgroundColor=none;rounded=0;html=1;whiteSpace=wrap;container=0;" vertex="1" parent="b572gwpHaJpwLimqCF18-35">
          <mxGeometry x="12" y="14" width="13" height="11" as="geometry" />
        </mxCell>
        <mxCell id="b572gwpHaJpwLimqCF18-38" value="&lt;div style=&quot;font-size: 24px;&quot;&gt;&lt;font style=&quot;font-size: 24px; font-family: Calibri; color: rgb(0, 0, 0); direction: ltr; letter-spacing: 0px; line-height: 120%; opacity: 1;&quot;&gt;{&amp;nbsp;  }&lt;br style=&quot;font-size: 24px;&quot;&gt;&lt;/font&gt;&lt;/div&gt;" style="verticalAlign=middle;align=center;overflow=width;vsdxID=10;fillColor=none;gradientColor=none;shape=stencil(nZBLDoAgDERP0z3SIyjew0SURgSD+Lu9kMZoXLhwN9O+tukAlrNpJg1SzDH4QW/URgNYgZTkjA4UkwJUgGXng+6DX1zLfmoymdXo17xh5zmRJ6Q42BWCfc2oJfdAr+Yv+AP9Cb7OJ3H/2JG1HNGz/84klThPVCc=);strokeColor=none;spacingTop=0;spacingBottom=0;spacingLeft=0;spacingRight=0;points=[];labelBackgroundColor=none;rounded=0;html=1;whiteSpace=wrap;container=0;fontSize=24;fontStyle=0;horizontal=1;" vertex="1" parent="b572gwpHaJpwLimqCF18-35">
          <mxGeometry x="3" y="3" width="30" height="30" as="geometry" />
        </mxCell>
        <UserObject label="" tooltip="ADAPT StrictPrecedence" id="b572gwpHaJpwLimqCF18-39">
          <mxCell style="vsdxID=5;edgeStyle=orthogonalEdgeStyle;startArrow=doubleBlock;endArrow=none;startSize=10;endSize=0;strokeColor=#000000;spacingTop=0;spacingBottom=0;spacingLeft=0;spacingRight=0;verticalAlign=middle;html=1;labelBackgroundColor=#FFFFFF;rounded=1;jumpStyle=arc;startFill=1;" edge="1" parent="1" source="b572gwpHaJpwLimqCF18-31" target="b572gwpHaJpwLimqCF18-36">
            <mxGeometry x="-152" y="-991" relative="1" as="geometry">
              <mxPoint x="2709" y="1890" as="sourcePoint" />
              <mxPoint x="2709" y="1970" as="targetPoint" />
            </mxGeometry>
          </mxCell>
        </UserObject>
        <mxCell id="b572gwpHaJpwLimqCF18-40" value="" style="group" connectable="0" vertex="1" parent="1">
          <mxGeometry x="2959" y="1800" width="160" height="40" as="geometry" />
        </mxCell>
        <mxCell id="b572gwpHaJpwLimqCF18-41" value="Location Type" style="rounded=1;whiteSpace=wrap;html=1;arcSize=50;align=left;spacingLeft=38;" vertex="1" parent="b572gwpHaJpwLimqCF18-40">
          <mxGeometry width="160" height="40" as="geometry" />
        </mxCell>
        <mxCell id="b572gwpHaJpwLimqCF18-42" value="&lt;div style=&quot;font-size: 1px&quot;&gt;&lt;/div&gt;" style="verticalAlign=middle;align=center;overflow=width;vsdxID=9;fillColor=#C0C0C0;gradientColor=none;shape=stencil(UzV2Ls5ILEhVNTIoLinKz04tz0wpyVA1dlE1MsrMy0gtyiwBslSNXVWNndPyi1LTi/JL81Ig/IJEkEoQKze/DGRCBUSfqQFIi5FBJYQL4blBVOZk5iGpRFVoaIBHKUySKMX4XABkIByelpmTA/E3sjy6R4FCkEAydgUA);strokeColor=#000000;spacingTop=-3;spacingBottom=-3;spacingLeft=-3;spacingRight=-3;points=[];labelBackgroundColor=none;rounded=0;html=1;whiteSpace=wrap;container=0;" vertex="1" parent="b572gwpHaJpwLimqCF18-40">
          <mxGeometry x="12" y="14" width="13" height="11" as="geometry" />
        </mxCell>
        <mxCell id="b572gwpHaJpwLimqCF18-43" value="&lt;div style=&quot;font-size: 24px;&quot;&gt;&lt;font style=&quot;font-size: 24px; font-family: Calibri; color: rgb(0, 0, 0); direction: ltr; letter-spacing: 0px; line-height: 120%; opacity: 1;&quot;&gt;{&amp;nbsp;  }&lt;br style=&quot;font-size: 24px;&quot;&gt;&lt;/font&gt;&lt;/div&gt;" style="verticalAlign=middle;align=center;overflow=width;vsdxID=10;fillColor=none;gradientColor=none;shape=stencil(nZBLDoAgDERP0z3SIyjew0SURgSD+Lu9kMZoXLhwN9O+tukAlrNpJg1SzDH4QW/URgNYgZTkjA4UkwJUgGXng+6DX1zLfmoymdXo17xh5zmRJ6Q42BWCfc2oJfdAr+Yv+AP9Cb7OJ3H/2JG1HNGz/84klThPVCc=);strokeColor=none;spacingTop=0;spacingBottom=0;spacingLeft=0;spacingRight=0;points=[];labelBackgroundColor=none;rounded=0;html=1;whiteSpace=wrap;container=0;fontSize=24;fontStyle=0;horizontal=1;" vertex="1" parent="b572gwpHaJpwLimqCF18-40">
          <mxGeometry x="3" y="3" width="30" height="30" as="geometry" />
        </mxCell>
        <UserObject label="" tooltip="ADAPT StrictPrecedence" id="b572gwpHaJpwLimqCF18-44">
          <mxCell style="vsdxID=5;edgeStyle=orthogonalEdgeStyle;startArrow=doubleBlock;endArrow=none;startSize=10;endSize=0;strokeColor=#000000;spacingTop=0;spacingBottom=0;spacingLeft=0;spacingRight=0;verticalAlign=middle;html=1;labelBackgroundColor=#FFFFFF;rounded=1;jumpStyle=arc;startFill=1;" edge="1" parent="1" source="b572gwpHaJpwLimqCF18-23" target="b572gwpHaJpwLimqCF18-41">
            <mxGeometry x="-152" y="-991" relative="1" as="geometry">
              <mxPoint x="2730" y="1730" as="sourcePoint" />
              <mxPoint x="2730" y="1810" as="targetPoint" />
            </mxGeometry>
          </mxCell>
        </UserObject>
        <mxCell id="b572gwpHaJpwLimqCF18-45" value="" style="group;fillColor=#FFFFFF;strokeColor=#36393d;" connectable="0" vertex="1" parent="1">
          <mxGeometry x="2959" y="2000" width="160" height="40" as="geometry" />
        </mxCell>
        <mxCell id="b572gwpHaJpwLimqCF18-46" value="Location" style="rounded=1;whiteSpace=wrap;html=1;arcSize=50;align=left;spacingLeft=38;fillColor=#ffcc99;strokeColor=#36393d;" vertex="1" parent="b572gwpHaJpwLimqCF18-45">
          <mxGeometry width="160" height="40" as="geometry" />
        </mxCell>
        <mxCell id="b572gwpHaJpwLimqCF18-47" value="&lt;div style=&quot;font-size: 1px&quot;&gt;&lt;/div&gt;" style="verticalAlign=middle;align=center;overflow=width;vsdxID=9;fillColor=#C0C0C0;gradientColor=none;shape=stencil(UzV2Ls5ILEhVNTIoLinKz04tz0wpyVA1dlE1MsrMy0gtyiwBslSNXVWNndPyi1LTi/JL81Ig/IJEkEoQKze/DGRCBUSfqQFIi5FBJYQL4blBVOZk5iGpRFVoaIBHKUySKMX4XABkIByelpmTA/E3sjy6R4FCkEAydgUA);strokeColor=#000000;spacingTop=-3;spacingBottom=-3;spacingLeft=-3;spacingRight=-3;points=[];labelBackgroundColor=none;rounded=0;html=1;whiteSpace=wrap;container=0;" vertex="1" parent="b572gwpHaJpwLimqCF18-45">
          <mxGeometry x="12" y="14" width="13" height="11" as="geometry" />
        </mxCell>
        <mxCell id="b572gwpHaJpwLimqCF18-48" value="&lt;div style=&quot;font-size: 24px;&quot;&gt;&lt;font style=&quot;font-size: 24px; font-family: Calibri; color: rgb(0, 0, 0); direction: ltr; letter-spacing: 0px; line-height: 120%; opacity: 1;&quot;&gt;{&amp;nbsp;  }&lt;br style=&quot;font-size: 24px;&quot;&gt;&lt;/font&gt;&lt;/div&gt;" style="verticalAlign=middle;align=center;overflow=width;vsdxID=10;fillColor=none;gradientColor=none;shape=stencil(nZBLDoAgDERP0z3SIyjew0SURgSD+Lu9kMZoXLhwN9O+tukAlrNpJg1SzDH4QW/URgNYgZTkjA4UkwJUgGXng+6DX1zLfmoymdXo17xh5zmRJ6Q42BWCfc2oJfdAr+Yv+AP9Cb7OJ3H/2JG1HNGz/84klThPVCc=);strokeColor=none;spacingTop=0;spacingBottom=0;spacingLeft=0;spacingRight=0;points=[];labelBackgroundColor=none;rounded=0;html=1;whiteSpace=wrap;container=0;fontSize=24;fontStyle=0;horizontal=1;" vertex="1" parent="b572gwpHaJpwLimqCF18-45">
          <mxGeometry x="3" y="3" width="30" height="30" as="geometry" />
        </mxCell>
        <mxCell id="b572gwpHaJpwLimqCF18-49" value="" style="vsdxID=5;edgeStyle=orthogonalEdgeStyle;startArrow=none;endArrow=block;startSize=10;endSize=10;strokeColor=#000000;spacingTop=0;spacingBottom=0;spacingLeft=0;spacingRight=0;verticalAlign=middle;html=1;labelBackgroundColor=#FFFFFF;rounded=0;jumpStyle=arc;startFill=0;endFill=1;" edge="1" parent="1" source="b572gwpHaJpwLimqCF18-46" target="b572gwpHaJpwLimqCF18-17">
          <mxGeometry x="-152" y="-991" relative="1" as="geometry">
            <mxPoint x="3159" y="2141" as="sourcePoint" />
            <mxPoint x="3249" y="1360" as="targetPoint" />
          </mxGeometry>
        </mxCell>
        <mxCell id="b572gwpHaJpwLimqCF18-50" value="" style="vsdxID=5;edgeStyle=orthogonalEdgeStyle;startArrow=none;endArrow=block;startSize=10;endSize=10;strokeColor=#000000;spacingTop=0;spacingBottom=0;spacingLeft=0;spacingRight=0;verticalAlign=middle;html=1;labelBackgroundColor=#FFFFFF;rounded=0;jumpStyle=arc;startFill=0;endFill=1;" edge="1" parent="1" source="b572gwpHaJpwLimqCF18-46" target="b572gwpHaJpwLimqCF18-20">
          <mxGeometry x="-152" y="-991" relative="1" as="geometry">
            <mxPoint x="3129" y="2030" as="sourcePoint" />
            <mxPoint x="3189" y="2030" as="targetPoint" />
            <Array as="points">
              <mxPoint x="3149" y="2020" />
              <mxPoint x="3149" y="2080" />
            </Array>
          </mxGeometry>
        </mxCell>
        <UserObject label="" tooltip="ADAPT StrictPrecedence" id="b572gwpHaJpwLimqCF18-51">
          <mxCell style="vsdxID=5;edgeStyle=orthogonalEdgeStyle;startArrow=doubleBlock;endArrow=none;startSize=10;endSize=0;strokeColor=#000000;spacingTop=0;spacingBottom=0;spacingLeft=0;spacingRight=0;verticalAlign=middle;html=1;labelBackgroundColor=#FFFFFF;rounded=1;jumpStyle=arc;startFill=1;" edge="1" parent="1" source="b572gwpHaJpwLimqCF18-41" target="b572gwpHaJpwLimqCF18-46">
            <mxGeometry x="-152" y="-991" relative="1" as="geometry">
              <mxPoint x="3049" y="1730" as="sourcePoint" />
              <mxPoint x="3049" y="1810" as="targetPoint" />
            </mxGeometry>
          </mxCell>
        </UserObject>
        <UserObject label="" tooltip="ADAPT StrictPrecedence" id="b572gwpHaJpwLimqCF18-52">
          <mxCell style="vsdxID=5;edgeStyle=orthogonalEdgeStyle;startArrow=doubleBlock;endArrow=none;startSize=10;endSize=0;strokeColor=#000000;spacingTop=0;spacingBottom=0;spacingLeft=0;spacingRight=0;verticalAlign=middle;html=1;labelBackgroundColor=#FFFFFF;rounded=1;jumpStyle=arc;startFill=1;" edge="1" parent="1" source="b572gwpHaJpwLimqCF18-36" target="b572gwpHaJpwLimqCF18-46">
            <mxGeometry x="-152" y="-991" relative="1" as="geometry">
              <mxPoint x="3139" y="1740" as="sourcePoint" />
              <mxPoint x="3139" y="1820" as="targetPoint" />
            </mxGeometry>
          </mxCell>
        </UserObject>
        <mxCell id="b572gwpHaJpwLimqCF18-53" value="" style="group" connectable="0" vertex="1" parent="1">
          <mxGeometry x="2449" y="1800" width="160" height="40" as="geometry" />
        </mxCell>
        <mxCell id="b572gwpHaJpwLimqCF18-54" value="EU Member" style="rounded=1;whiteSpace=wrap;html=1;arcSize=50;align=left;spacingLeft=38;" vertex="1" parent="b572gwpHaJpwLimqCF18-53">
          <mxGeometry width="160" height="40" as="geometry" />
        </mxCell>
        <mxCell id="b572gwpHaJpwLimqCF18-55" value="&lt;div style=&quot;font-size: 24px;&quot;&gt;&lt;font style=&quot;font-size: 24px; font-family: Calibri; color: rgb(0, 0, 0); direction: ltr; letter-spacing: 0px; line-height: 120%; opacity: 1;&quot;&gt;{&amp;nbsp;  }&lt;br style=&quot;font-size: 24px;&quot;&gt;&lt;/font&gt;&lt;/div&gt;" style="verticalAlign=middle;align=center;overflow=width;vsdxID=10;fillColor=none;gradientColor=none;shape=stencil(nZBLDoAgDERP0z3SIyjew0SURgSD+Lu9kMZoXLhwN9O+tukAlrNpJg1SzDH4QW/URgNYgZTkjA4UkwJUgGXng+6DX1zLfmoymdXo17xh5zmRJ6Q42BWCfc2oJfdAr+Yv+AP9Cb7OJ3H/2JG1HNGz/84klThPVCc=);strokeColor=none;spacingTop=0;spacingBottom=0;spacingLeft=0;spacingRight=0;points=[];labelBackgroundColor=none;rounded=0;html=1;whiteSpace=wrap;container=0;fontSize=24;fontStyle=0;horizontal=1;" vertex="1" parent="b572gwpHaJpwLimqCF18-53">
          <mxGeometry x="3" y="3" width="30" height="30" as="geometry" />
        </mxCell>
        <mxCell id="b572gwpHaJpwLimqCF18-56" value="" style="edgeStyle=orthogonalEdgeStyle;rounded=0;orthogonalLoop=1;jettySize=auto;html=1;" edge="1" parent="1" target="b572gwpHaJpwLimqCF18-54">
          <mxGeometry relative="1" as="geometry">
            <mxPoint x="2629" y="1820" as="sourcePoint" />
          </mxGeometry>
        </mxCell>
        <mxCell id="b572gwpHaJpwLimqCF18-57" value="" style="edgeStyle=orthogonalEdgeStyle;rounded=0;orthogonalLoop=1;jettySize=auto;html=1;" edge="1" parent="1" target="b572gwpHaJpwLimqCF18-54">
          <mxGeometry relative="1" as="geometry">
            <mxPoint x="2629" y="1820" as="sourcePoint" />
          </mxGeometry>
        </mxCell>
        <UserObject label="" Cost="0" Duration="0" Resources="0" id="b572gwpHaJpwLimqCF18-58">
          <mxCell style="vsdxID=5;fillColor=#FFFFFF;gradientColor=none;shape=stencil(vVLREoIgEPwaHnEQ1Ond9D+YRGUicU5K+vtwsAytqemht7u929s9DsTyoeW9QJQMBvRRjLIyLWJ7RKnsWgHSuAixArG81iAa0Oeu8nnPp84pOunLNMF6HpkYlFx9lvq09J0cDq4ENqgRCHvvg2LychSxmFs5YNCGG6m7QFVxaAR2MrhWvJnn+NIwCtFv4F+M/c+WC5ZnrqVS/kqP+rsbxEmUJYHLBZmpSnZPhF0asSwgLEj5ncKG8ElhYynYdrWpC9Yf0EH+87LiBg==);strokeColor=#000000;spacingTop=-1;spacingBottom=-1;spacingLeft=-1;spacingRight=-1;points=[[0.5,1,0],[0.5,0,0],[0,0.5,0],[1,0.5,0]];labelBackgroundColor=none;rounded=0;html=1;whiteSpace=wrap;" vertex="1" parent="1">
            <mxGeometry x="2639" y="1800" width="40" height="40" as="geometry" />
          </mxCell>
        </UserObject>
        <mxCell id="b572gwpHaJpwLimqCF18-59" value="" style="vsdxID=5;edgeStyle=orthogonalEdgeStyle;startArrow=none;endArrow=block;startSize=10;endSize=10;strokeColor=#000000;spacingTop=0;spacingBottom=0;spacingLeft=0;spacingRight=0;verticalAlign=middle;html=1;labelBackgroundColor=#FFFFFF;rounded=0;jumpStyle=arc;startFill=0;endFill=1;" edge="1" parent="1" source="b572gwpHaJpwLimqCF18-31" target="b572gwpHaJpwLimqCF18-58">
          <mxGeometry x="-152" y="-991" relative="1" as="geometry">
            <mxPoint x="2647" y="1810" as="sourcePoint" />
            <mxPoint x="2256" y="1560" as="targetPoint" />
          </mxGeometry>
        </mxCell>
        <mxCell id="b572gwpHaJpwLimqCF18-60" value="" style="vsdxID=5;edgeStyle=orthogonalEdgeStyle;startArrow=none;endArrow=block;startSize=10;endSize=10;strokeColor=#000000;spacingTop=0;spacingBottom=0;spacingLeft=0;spacingRight=0;verticalAlign=middle;html=1;labelBackgroundColor=#FFFFFF;rounded=0;jumpStyle=arc;startFill=0;endFill=1;" edge="1" parent="1" source="b572gwpHaJpwLimqCF18-58" target="b572gwpHaJpwLimqCF18-54">
          <mxGeometry x="-152" y="-991" relative="1" as="geometry">
            <mxPoint x="2609" y="1820" as="sourcePoint" />
            <mxPoint x="2651" y="1830" as="targetPoint" />
          </mxGeometry>
        </mxCell>
        <mxCell id="b572gwpHaJpwLimqCF18-61" value="" style="group" connectable="0" vertex="1" parent="1">
          <mxGeometry x="2449" y="1860" width="160" height="40" as="geometry" />
        </mxCell>
        <mxCell id="b572gwpHaJpwLimqCF18-62" value="Non-EU" style="rounded=1;whiteSpace=wrap;html=1;arcSize=50;align=left;spacingLeft=38;" vertex="1" parent="b572gwpHaJpwLimqCF18-61">
          <mxGeometry width="160" height="40" as="geometry" />
        </mxCell>
        <mxCell id="b572gwpHaJpwLimqCF18-63" value="&lt;div style=&quot;font-size: 24px;&quot;&gt;&lt;font style=&quot;font-size: 24px; font-family: Calibri; color: rgb(0, 0, 0); direction: ltr; letter-spacing: 0px; line-height: 120%; opacity: 1;&quot;&gt;{&amp;nbsp;  }&lt;br style=&quot;font-size: 24px;&quot;&gt;&lt;/font&gt;&lt;/div&gt;" style="verticalAlign=middle;align=center;overflow=width;vsdxID=10;fillColor=none;gradientColor=none;shape=stencil(nZBLDoAgDERP0z3SIyjew0SURgSD+Lu9kMZoXLhwN9O+tukAlrNpJg1SzDH4QW/URgNYgZTkjA4UkwJUgGXng+6DX1zLfmoymdXo17xh5zmRJ6Q42BWCfc2oJfdAr+Yv+AP9Cb7OJ3H/2JG1HNGz/84klThPVCc=);strokeColor=none;spacingTop=0;spacingBottom=0;spacingLeft=0;spacingRight=0;points=[];labelBackgroundColor=none;rounded=0;html=1;whiteSpace=wrap;container=0;fontSize=24;fontStyle=0;horizontal=1;" vertex="1" parent="b572gwpHaJpwLimqCF18-61">
          <mxGeometry x="3" y="3" width="30" height="30" as="geometry" />
        </mxCell>
        <mxCell id="b572gwpHaJpwLimqCF18-64" value="" style="vsdxID=5;edgeStyle=orthogonalEdgeStyle;startArrow=none;endArrow=block;startSize=10;endSize=10;strokeColor=#000000;spacingTop=0;spacingBottom=0;spacingLeft=0;spacingRight=0;verticalAlign=middle;html=1;labelBackgroundColor=#FFFFFF;rounded=0;jumpStyle=arc;startFill=0;endFill=1;" edge="1" parent="1" source="b572gwpHaJpwLimqCF18-58" target="b572gwpHaJpwLimqCF18-62">
          <mxGeometry x="-152" y="-991" relative="1" as="geometry">
            <mxPoint x="2659" y="1830" as="sourcePoint" />
            <mxPoint x="2639" y="1830" as="targetPoint" />
            <Array as="points">
              <mxPoint x="2659" y="1880" />
            </Array>
          </mxGeometry>
        </mxCell>
        <mxCell id="b572gwpHaJpwLimqCF18-65" value="" style="vsdxID=5;edgeStyle=none;startArrow=none;endArrow=block;startSize=10;endSize=10;strokeColor=#000000;spacingTop=0;spacingBottom=0;spacingLeft=0;spacingRight=0;verticalAlign=middle;html=1;labelBackgroundColor=#FFFFFF;rounded=0;jumpStyle=arc;startFill=0;endFill=1;" edge="1" parent="1" source="b572gwpHaJpwLimqCF18-8" target="b572gwpHaJpwLimqCF18-1">
          <mxGeometry x="-152" y="-991" relative="1" as="geometry">
            <Array as="points" />
            <mxPoint x="2639" y="1550" as="sourcePoint" />
            <mxPoint x="2639" y="1630" as="targetPoint" />
          </mxGeometry>
        </mxCell>
        <mxCell id="b572gwpHaJpwLimqCF18-66" value="" style="vsdxID=5;edgeStyle=none;startArrow=none;endArrow=block;startSize=10;endSize=10;strokeColor=#000000;spacingTop=0;spacingBottom=0;spacingLeft=0;spacingRight=0;verticalAlign=middle;html=1;labelBackgroundColor=#FFFFFF;rounded=0;jumpStyle=arc;startFill=0;endFill=1;" edge="1" parent="1" source="b572gwpHaJpwLimqCF18-8" target="b572gwpHaJpwLimqCF18-23">
          <mxGeometry x="-152" y="-991" relative="1" as="geometry">
            <Array as="points" />
            <mxPoint x="2810" y="1610" as="sourcePoint" />
            <mxPoint x="2810" y="1690" as="targetPoint" />
          </mxGeometry>
        </mxCell>
      </root>
    </mxGraphModel>
  </diagram>
</mxfile>
